# xmcd
#
# Track frame offsets:
#	182
#	15327
#	31342
#	48285
#	60820
#	76407
#	97555
#	114057
#	135855
#	151872
#	166975
#
# Disc length: 2447 seconds
# Revision: 15
# Processed by: cddbd v1.5.2PL0 Copyright (c) Steve Scherf et al.
# Submitted via: dBpowerAMP V12.0
#
DISCID=5f098d0b
DTITLE=Tim McGraw - Everywhere
DYEAR=1997
DGENRE=Country
TTITLE0=Where the Green Grass Grows
TTITLE1=For a Little While
TTITLE2=It's Your Love (with Faith Hill)
TTITLE3=Ain't That the Way It Always Ends
TTITLE4=I Do But I Don't
TTITLE5=One of These Days
TTITLE6=Hard on the Ticker
TTITLE7=Everywhere
TTITLE8=Just to See You Smile
TTITLE9=You Just Get Better All the Time
TTITLE10=You Turn Me On
EXTD=
EXTT0=
EXTT1=
EXTT2=
EXTT3=
EXTT4=
EXTT5=
EXTT6=
EXTT7=
EXTT8=
EXTT9=
EXTT10=
PLAYORDER=
